<svg xmlns="http://www.w3.org/2000/svg" viewBox="0 0 240 240" role="img" aria-label="Lanissima">
  <defs>
    <clipPath id="ball"><circle cx="120" cy="120" r="102"/></clipPath>
  </defs>
  <circle cx="120" cy="120" r="102" fill="#9ccc3f" stroke="#1d1d1b" stroke-width="8"/>
  <g clip-path="url(#ball)">
    <g fill="none" stroke="#1d1d1b" stroke-width="3">
      <path d="M15 80 Q90 15 225 45"/>
      <path d="M20 65 Q100 0 220 30"/>
      <path d="M30 95 Q120 30 228 65"/>
      <path d="M40 40 Q130 -20 200 12"/>
    </g>
    <path d="M10 85 Q110 22 232 60 L232 8 L10 8 Z" fill="#c3e264" opacity="0.55"/>
    <rect x="5" y="82" width="230" height="76" fill="#e9d7ae" stroke="#1d1d1b" stroke-width="5"/>
    <g fill="none" stroke="#1d1d1b" stroke-width="3">
      <path d="M12 172 Q120 226 228 180"/>
      <path d="M14 188 Q120 242 226 196"/>
      <path d="M90 158 Q68 205 32 220"/>
      <path d="M120 158 Q112 210 82 235"/>
      <path d="M155 158 Q165 205 205 220"/>
    </g>
    <path d="M120 158 Q130 220 190 236 L230 236 Q175 216 165 158 Z" fill="#c3e264" opacity="0.55"/>
  </g>
  <circle cx="90" cy="112" r="8" fill="#1d1d1b"/>
  <circle cx="150" cy="112" r="8" fill="#1d1d1b"/>
  <circle cx="92.5" cy="109.5" r="2.5" fill="#ffffff"/>
  <circle cx="152.5" cy="109.5" r="2.5" fill="#ffffff"/>
  <circle cx="72" cy="130" r="7" fill="#f2b8c6" opacity="0.8"/>
  <circle cx="168" cy="130" r="7" fill="#f2b8c6" opacity="0.8"/>
  <path d="M100 130 Q120 148 140 130" fill="none" stroke="#1d1d1b" stroke-width="4.5" stroke-linecap="round"/>
</svg>
